#N canvas 0 0 600 400 12;
#X obj 100 50 osc~ 110;
#X obj 200 50 osc~ 165;
#X obj 300 50 osc~ 220;
#X obj 100 100 *~ 0.15;
#X obj 200 100 *~ 0.1;
#X obj 300 100 *~ 0.08;
#X obj 200 150 +~;
#X obj 200 200 +~;
#X obj 200 250 lop~ 2000;
#X obj 200 300 dac~;
#X text 50 20 Ambient drone patch;
#X connect 0 0 3 0;
#X connect 1 0 4 0;
#X connect 2 0 5 0;
#X connect 3 0 6 0;
#X connect 4 0 6 1;
#X connect 5 0 7 1;
#X connect 6 0 7 0;
#X connect 7 0 8 0;
#X connect 8 0 9 0;
#X connect 8 0 9 1;

