#N canvas 0 0 700 500 12;
#X text 50 20 FUDI Remote Control Test Patch;
#X text 50 50 Send commands via serial: "freq 440;" or "amp 0.5;";
#X obj 100 120 r freq;
#X obj 100 160 osc~;
#X obj 100 200 *~;
#X obj 200 120 r amp;
#X obj 200 160 / 100;
#X obj 100 280 dac~;
#X text 50 320 Try these commands via serial:;
#X text 70 340 freq 440;;
#X text 70 360 freq 880;;
#X text 70 380 amp 50;;
#X text 70 400 amp 0;;
#X text 70 420 trigger bang;;
#X obj 300 120 r trigger;
#X obj 300 160 bng 20 250 50 0 empty empty empty 0 -8 0 10 #fcfcfc #000000 #000000;
#X obj 300 200 s triggered;
#X text 300 240 Sends "triggered bang;" back;
#X obj 100 240 hip~ 5;
#X msg 100 80 440;
#X msg 200 80 50;
#X obj 400 120 loadbang;
#X connect 2 0 3 0;
#X connect 3 0 4 0;
#X connect 4 0 18 0;
#X connect 5 0 6 0;
#X connect 6 0 4 1;
#X connect 14 0 15 0;
#X connect 15 0 16 0;
#X connect 18 0 7 0;
#X connect 18 0 7 1;
#X connect 19 0 3 0;
#X connect 20 0 6 0;
#X connect 21 0 19 0;
#X connect 21 0 20 0;

