#N canvas 0 0 450 300 12;
#X obj 50 50 loadbang;
#X msg 50 90 440;
#X obj 50 130 r freq;
#X obj 50 170 osc~;
#X obj 150 130 r amp;
#X obj 150 170 / 100;
#X obj 50 210 *~;
#X obj 50 250 dac~;
#X connect 0 0 1 0;
#X connect 1 0 2 0;
#X connect 2 0 3 0;
#X connect 3 0 6 0;
#X connect 4 0 5 0;
#X connect 5 0 6 1;
#X connect 6 0 7 0;
#X connect 6 0 7 1;
