#N canvas 0 0 600 450 12;
#N canvas 0 0 450 300 synth 0;
#X obj 50 50 inlet;
#X obj 150 50 inlet;
#X obj 50 100 mtof;
#X obj 50 150 osc~;
#X obj 150 100 / 127;
#X obj 50 200 *~;
#X obj 50 250 *~ 0.3;
#X obj 50 300 outlet~;
#X connect 0 0 2 0;
#X connect 1 0 4 0;
#X connect 2 0 3 0;
#X connect 3 0 5 0;
#X connect 4 0 5 1;
#X connect 5 0 6 0;
#X connect 6 0 7 0;
#X restore 150 200 pd synth;
#X obj 150 50 notein;
#X obj 150 100 stripnote;
#X obj 150 300 dac~;
#X text 50 20 BarePD - Simple MIDI Synth;
#X text 300 100 Connect a USB MIDI keyboard;
#X text 300 120 and play notes!;
#X connect 0 0 3 0;
#X connect 0 0 3 1;
#X connect 1 0 2 0;
#X connect 1 1 2 1;
#X connect 2 0 0 0;
#X connect 2 1 0 1;

