#N canvas 0 0 450 300 12;
#X obj 50 30 loadbang;
#X msg 50 60 440;
#X obj 50 90 s freq;
#X msg 150 60 50;
#X obj 150 90 s amp;
#X obj 50 140 r freq;
#X obj 50 170 osc~;
#X obj 150 140 r amp;
#X obj 150 170 / 100;
#X obj 50 210 *~;
#X obj 50 250 dac~;
#X connect 0 0 1 0;
#X connect 0 0 3 0;
#X connect 1 0 2 0;
#X connect 3 0 4 0;
#X connect 5 0 6 0;
#X connect 6 0 9 0;
#X connect 7 0 8 0;
#X connect 8 0 9 1;
#X connect 9 0 10 0;
#X connect 9 0 10 1;
