#N canvas 0 0 600 500 12;
#X obj 50 30 loadbang;
#X msg 50 70 read -resize test.wav sample;
#X obj 50 110 soundfiler;
#X obj 50 150 print loaded;
#X text 200 70 Load test.wav into array on startup;
#X obj 50 200 metro 2000;
#X obj 50 240 tabplay~ sample;
#X obj 50 350 *~ 0.8;
#X obj 50 400 dac~;
#X obj 150 200 tgl 20 0 empty empty loop 0 -8 0 10 #fcfcfc #000000 #000000 1 1;
#X text 200 240 Plays sample every 2 seconds;
#X text 200 350 Volume control;
#N canvas 0 0 450 300 sample 0;
#X array sample 88200 float 2;
#X coords 0 1 88200 -1 400 150 1;
#X restore 150 420 graph;
#X text 50 450 Sample waveform display;
#X obj 50 300 +~;
#X obj 200 280 osc~ 220;
#X obj 200 310 *~ 0.1;
#X text 280 280 Backup tone if no sample;
#X connect 0 0 1 0;
#X connect 0 0 5 0;
#X connect 1 0 2 0;
#X connect 2 0 3 0;
#X connect 5 0 6 0;
#X connect 6 0 14 0;
#X connect 7 0 8 0;
#X connect 7 0 8 1;
#X connect 9 0 5 0;
#X connect 14 0 7 0;
#X connect 15 0 16 0;
#X connect 16 0 14 1;

