#N canvas 0 22 600 450 12;
#X text 20 10 BarePD Demo - Filtered Synth with LFO;
#X text 20 30 =========================================;
#X obj 50 100 osc~ 110;
#X obj 150 100 osc~ 220;
#X obj 250 100 osc~ 330;
#X obj 150 150 +~;
#X obj 150 180 +~;
#X obj 150 210 *~ 0.15;
#X obj 50 270 lfo;
#X obj 150 270 vcf~ 800 8;
#X obj 150 320 *~ 0.5;
#X obj 150 370 dac~;
#X text 20 420 Uses lfo.pd abstraction from pd/ folder;
#X connect 2 0 5 0;
#X connect 3 0 5 1;
#X connect 4 0 6 1;
#X connect 5 0 6 0;
#X connect 6 0 7 0;
#X connect 7 0 9 0;
#X connect 8 0 9 1;
#X connect 9 0 10 0;
#X connect 10 0 11 0;
#X connect 10 0 11 1;
