#N canvas 0 22 600 450 12;
#X text 20 10 BarePD Sampler - Looping Sample Player;
#X text 20 30 =========================================;
#X text 20 50 Place sample.wav in the pd/ folder;
#X obj 50 100 loadbang;
#X msg 50 130 read -resize sample.wav sample;
#X obj 50 160 soundfiler;
#X obj 250 160 table sample 88200;
#X obj 50 220 phasor~ 0.5;
#X obj 50 250 *~ 88200;
#X obj 50 280 tabread4~ sample;
#X obj 50 310 lfo;
#X obj 50 340 vcf~ 1000 5;
#X obj 50 380 *~ 0.8;
#X obj 50 420 dac~;
#X connect 3 0 4 0;
#X connect 4 0 5 0;
#X connect 6 0 7 0;
#X connect 7 0 8 0;
#X connect 8 0 9 0;
#X connect 9 0 11 0;
#X connect 10 0 11 1;
#X connect 11 0 12 0;
#X connect 12 0 13 0;
#X connect 12 0 13 1;

